<svg height="480pt" viewBox="0 0 480 480" width="480pt" xmlns="http://www.w3.org/2000/svg"><path d="m0 0h480v480h-480z" fill="#e6e9ed"/><path d="m0 0h480v96h-480zm0 0" fill="#666d77"/><path d="m192 48c0 8.835938-7.164062 16-16 16s-16-7.164062-16-16 7.164062-16 16-16 16 7.164062 16 16zm0 0" fill="#98be61"/><path d="m128 48c0 8.835938-7.164062 16-16 16s-16-7.164062-16-16 7.164062-16 16-16 16 7.164062 16 16zm0 0" fill="#eebc5a"/><path d="m64 48c0 8.835938-7.164062 16-16 16s-16-7.164062-16-16 7.164062-16 16-16 16 7.164062 16 16zm0 0" fill="#ca5057"/><path d="m224 288h-112l-48 48v-48h-16c-8.839844 0-16-7.160156-16-16v-128c0-8.839844 7.160156-16 16-16h176c8.839844 0 16 7.160156 16 16v128c0 8.839844-7.160156 16-16 16zm0 0" fill="#eebc5a"/><path d="m48 288h16v40l24-24h8l16-16h104v-144h-184v128c0 8.839844 7.160156 16 16 16zm0 0" fill="#f8cf6a"/><path d="m256 288h112l48-48v48h16c8.839844 0 16 7.160156 16 16v128c0 8.839844-7.160156 16-16 16h-176c-8.839844 0-16-7.160156-16-16v-128c0-8.839844 7.160156-16 16-16zm0 0" fill="#eebc5a"/><path d="m432 288h-16v-40l-24 24h-8l-16 16h-104v144h184v-128c0-8.839844-7.160156-16-16-16zm0 0" fill="#f8cf6a"/><path d="m96 176c0 8.835938-7.164062 16-16 16s-16-7.164062-16-16 7.164062-16 16-16 16 7.164062 16 16zm0 0" fill="#666d77"/><path d="m160 176c0 8.835938-7.164062 16-16 16s-16-7.164062-16-16 7.164062-16 16-16 16 7.164062 16 16zm0 0" fill="#666d77"/><path d="m416 400c0 8.835938-7.164062 16-16 16s-16-7.164062-16-16 7.164062-16 16-16 16 7.164062 16 16zm0 0" fill="#666d77"/><path d="m352 400c0 8.835938-7.164062 16-16 16s-16-7.164062-16-16 7.164062-16 16-16 16 7.164062 16 16zm0 0" fill="#666d77"/><path d="m336 304v-32h-17.609375c-2-9.863281-5.992187-18.953125-11.261719-27.136719l12.871094-12.863281-24-24-12.863281 12.863281c-8.183594-5.269531-17.265625-9.253906-27.136719-11.261719v-17.601562h-32v17.609375c-9.871094 2.007813-19.054688 5.871094-27.238281 11.152344l-12.761719-12.761719-24 24 12.761719 12.761719c-5.28125 8.191406-9.144531 17.367187-11.152344 27.238281h-17.609375v32h17.609375c2 9.863281 5.992187 18.953125 11.261719 27.136719l-12.871094 12.863281 24 24 12.863281-12.863281c8.183594 5.269531 17.265625 9.253906 27.136719 11.261719v17.601562h32v-17.609375c9.871094-2.007813 19.054688-5.871094 27.238281-11.152344l12.761719 12.761719 24-24-12.761719-12.761719c5.28125-8.191406 9.144531-17.367187 11.152344-27.238281zm0 0" fill="#666d77"/><path d="m288 288c0 26.507812-21.492188 48-48 48s-48-21.492188-48-48 21.492188-48 48-48 48 21.492188 48 48zm0 0" fill="#f5f7fa"/><path d="m48 72c-13.230469 0-24-10.769531-24-24s10.769531-24 24-24 24 10.769531 24 24-10.769531 24-24 24zm0-32c-4.40625 0-8 3.585938-8 8s3.59375 8 8 8 8-3.585938 8-8-3.59375-8-8-8zm0 0" fill="#dc6068"/><path d="m112 72c-13.230469 0-24-10.769531-24-24s10.769531-24 24-24 24 10.769531 24 24-10.769531 24-24 24zm0-32c-4.40625 0-8 3.585938-8 8s3.59375 8 8 8 8-3.585938 8-8-3.59375-8-8-8zm0 0" fill="#f8cf6a"/><path d="m176 72c-13.230469 0-24-10.769531-24-24s10.769531-24 24-24 24 10.769531 24 24-10.769531 24-24 24zm0-32c-4.40625 0-8 3.585938-8 8s3.59375 8 8 8 8-3.585938 8-8-3.59375-8-8-8zm0 0" fill="#abd176"/><g fill="#e6e9ed"><path d="m216 40h16v16h-16zm0 0"/><path d="m248 40h16v16h-16zm0 0"/><path d="m280 40h16v16h-16zm0 0"/><path d="m80 200c-13.230469 0-24-10.769531-24-24s10.769531-24 24-24 24 10.769531 24 24-10.769531 24-24 24zm0-32c-4.40625 0-8 3.585938-8 8s3.59375 8 8 8 8-3.585938 8-8-3.59375-8-8-8zm0 0"/><path d="m144 200c-13.230469 0-24-10.769531-24-24s10.769531-24 24-24 24 10.769531 24 24-10.769531 24-24 24zm0-32c-4.40625 0-8 3.585938-8 8s3.59375 8 8 8 8-3.585938 8-8-3.59375-8-8-8zm0 0"/><path d="m400 424c-13.230469 0-24-10.769531-24-24s10.769531-24 24-24 24 10.769531 24 24-10.769531 24-24 24zm0-32c-4.40625 0-8 3.585938-8 8s3.59375 8 8 8 8-3.585938 8-8-3.59375-8-8-8zm0 0"/><path d="m336 424c-13.230469 0-24-10.769531-24-24s10.769531-24 24-24 24 10.769531 24 24-10.769531 24-24 24zm0-32c-4.40625 0-8 3.585938-8 8s3.59375 8 8 8 8-3.585938 8-8-3.59375-8-8-8zm0 0"/></g></svg>